# Blender 4.4.3
# www.blender.org
mtllib LowPolySphere.mtl
o Sphere
v -0.267179 -0.490816 -0.863354
v 0.003937 0.133822 -1.030970
v 0.223527 -0.588310 -0.839193
v 0.458836 0.639316 -0.707137
v 0.138796 1.012950 -0.041374
v 0.838865 -0.211879 -0.621304
v 0.759822 -0.641350 -0.220106
v 1.029403 -0.074414 0.146845
v 0.754451 0.744930 0.048414
v 0.578012 -0.339446 0.807785
v 0.534731 0.397129 0.827913
v 0.555559 -0.726333 0.511459
v 0.183961 0.870112 0.503188
v 0.302056 -0.994857 -0.033511
v -0.244662 0.521106 0.861019
v -0.258948 -0.790580 0.629615
v -0.408482 -0.132955 0.985187
v -0.527017 0.764889 0.506527
v -0.989411 0.258147 0.215407
v -0.881355 -0.496439 0.258886
v -0.859081 -0.208943 -0.570825
v -0.751480 0.657830 -0.267807
v -0.233549 0.977518 -0.243802
v -0.300462 -0.984137 -0.024146
v -0.482625 0.428232 -0.828104
v -0.499513 -0.888934 -0.307771
vn -0.0217 -0.9523 -0.3044
vn 0.3964 -0.1212 -0.9101
vn 0.5693 -0.6147 -0.5459
vn 0.4172 0.8633 -0.2839
vn 0.9203 0.2755 -0.2776
vn 0.8404 -0.5129 0.1751
vn 0.8192 0.0325 0.5725
vn 0.3648 0.9076 0.2078
vn 0.5272 0.7107 0.4657
vn 0.1736 -0.0167 0.9847
vn 0.0619 -0.4638 0.8838
vn 0.1608 -0.6060 0.7790
vn 0.1285 -0.9120 0.3896
vn 0.0687 0.1694 0.9831
vn -0.1401 0.9548 0.2621
vn -0.0126 -0.9586 0.2846
vn -0.4473 -0.0707 -0.8916
vn -0.6052 -0.4807 0.6346
vn -0.7024 0.2604 0.6624
vn -0.5383 -0.7982 0.2705
vn -0.8154 -0.0838 0.5728
vn -0.5261 0.8497 0.0350
vn -0.9863 -0.1457 -0.0770
vn -0.9349 0.2149 -0.2826
vn -0.4339 0.7414 -0.5120
vn -0.0159 0.5494 -0.8354
vn -0.0036 -0.2577 -0.9662
vn -0.0813 0.7433 -0.6640
vn 0.0373 -0.8907 -0.4531
vn 0.1483 0.8911 -0.4288
vn 0.4786 0.1260 -0.8690
vn 0.4297 -0.7886 -0.4398
vn 0.8571 0.3440 -0.3834
vn 0.9281 -0.3306 -0.1711
vn 0.6308 -0.7711 0.0865
vn 0.8298 -0.3689 0.4188
vn 0.8574 0.3347 0.3910
vn -0.1118 0.7750 0.6220
vn 0.1322 0.6258 0.7687
vn -0.1974 0.9607 0.1950
vn -0.6382 0.2949 0.7111
vn -0.7696 0.6236 0.1369
vn -0.5920 -0.7919 0.1496
vn -0.8315 -0.5177 -0.2017
vn -0.8166 0.2782 -0.5058
vn -0.5653 -0.5401 -0.6234
vn -0.1250 -0.7810 -0.6119
vt 0.885585 0.223809
vt 0.509766 0.119247
vt 0.878880 0.090880
vt 0.751954 0.543625
vt 0.598287 0.442641
vt 0.702285 0.310791
vt 0.546046 0.282548
vt 0.497262 0.929275
vt 0.482085 0.739014
vt 0.660759 0.710870
vt 0.474411 0.474905
vt 0.382686 0.259074
vt 0.342613 0.616717
vt 0.345752 0.405860
vt 0.303843 0.823516
vt 0.188651 0.461457
vt 0.186751 0.233268
vt 0.203846 0.666970
vt 0.109747 0.761588
vt 0.030099 0.101275
vt 0.795836 0.343472
vt 0.907746 0.434550
vt 0.835833 0.635807
vt 0.052408 0.346826
vt 0.035290 0.570133
vt 0.031154 0.911618
vt 0.000000 0.784407
vt 0.996289 0.584928
vt 0.992171 0.399333
vt 0.942053 0.718160
vt 0.877808 0.875529
vt 0.000000 0.273040
s 0
f 26/1/1 14/2/1 24/3/1
f 2/4/2 6/5/2 3/6/2
f 6/5/3 7/7/3 3/6/3
f 5/8/4 9/9/4 4/10/4
f 6/5/5 9/9/5 8/11/5
f 7/7/6 8/11/6 12/12/6
f 8/11/7 11/13/7 10/14/7
f 5/8/8 13/15/8 9/9/8
f 9/9/9 13/15/9 11/13/9
f 11/13/10 17/16/10 10/14/10
f 10/14/11 17/16/11 16/17/11
f 10/14/12 16/17/12 12/12/12
f 12/12/13 16/17/13 14/2/13
f 11/13/14 15/18/14 17/16/14
f 13/15/15 5/8/15 18/19/15
f 16/17/16 24/20/16 14/2/16
f 1/21/17 21/22/17 25/23/17 2/4/17
f 16/17/18 17/16/18 20/24/18
f 17/16/19 18/19/19 19/25/19
f 16/17/20 20/24/20 24/20/20
f 19/25/21 20/24/21 17/16/21
f 18/19/22 23/26/22 22/27/22
f 19/28/23 21/22/23 20/29/23
f 19/28/24 22/30/24 21/22/24
f 23/31/25 25/23/25 22/30/25
f 25/23/26 4/10/26 2/4/26
f 2/4/27 3/6/27 1/21/27
f 25/23/28 23/31/28 4/10/28
f 26/1/29 3/6/29 14/2/29
f 23/31/30 5/8/30 4/10/30
f 2/4/31 4/10/31 6/5/31
f 3/6/32 7/7/32 14/2/32
f 6/5/33 4/10/33 9/9/33
f 7/7/34 6/5/34 8/11/34
f 14/2/35 7/7/35 12/12/35
f 8/11/36 10/14/36 12/12/36
f 8/11/37 9/9/37 11/13/37
f 13/15/38 18/19/38 15/18/38
f 11/13/39 13/15/39 15/18/39
f 5/8/40 23/26/40 18/19/40
f 17/16/41 15/18/41 18/19/41
f 19/25/42 18/19/42 22/27/42
f 24/20/43 20/24/43 26/32/43
f 26/1/44 20/29/44 21/22/44
f 21/22/45 22/30/45 25/23/45
f 21/22/46 1/21/46 26/1/46
f 26/1/47 1/21/47 3/6/47
